<svg width="32" height="32" viewBox="0 0 32 32" fill="none" xmlns="http://www.w3.org/2000/svg">
<path d="M16 32C24.8366 32 32 24.8366 32 16C32 7.16344 24.8366 0 16 0C7.16344 0 0 7.16344 0 16C0 24.8366 7.16344 32 16 32Z" fill="#5D50C6"/>
<path d="M25.8005 11.5005C25.1149 11.8045 24.3773 12.0101 23.6038 12.102C24.3935 11.6288 24.9996 10.8801 25.2857 9.98654C24.5467 10.4249 23.7279 10.7429 22.8571 10.9143C22.1595 10.1714 21.1655 9.70703 20.0648 9.70703C17.9531 9.70703 16.2404 11.4197 16.2404 13.5315C16.2404 13.8312 16.2743 14.123 16.3399 14.4031C13.1615 14.2437 10.3433 12.7212 8.45687 10.4067C8.12773 10.9714 7.93892 11.6288 7.93892 12.3296C7.93892 13.6561 8.61459 14.8272 9.64022 15.5129C9.01361 15.4932 8.4235 15.3212 7.90811 15.034C7.90783 15.0503 7.90783 15.0665 7.90783 15.0825C7.90783 16.9355 9.22666 18.4811 10.9759 18.8322C10.6553 18.9201 10.3168 18.9665 9.96851 18.9665C9.72151 18.9665 9.48222 18.9429 9.24891 18.8984C9.73549 20.4174 11.1476 21.5232 12.8215 21.5543C11.5124 22.5802 9.86355 23.1914 8.07126 23.1914C7.76322 23.1914 7.45804 23.1735 7.15942 23.1378C8.85103 24.2233 10.8618 24.8562 13.0215 24.8562C20.056 24.8562 23.903 19.0287 23.903 13.9744C23.903 13.8087 23.8993 13.6436 23.8919 13.4799C24.6397 12.9408 25.288 12.2674 25.8005 11.5005Z" fill="#F1F2F2"/>
</svg>
